<svg width="106" height="19" viewBox="0 0 106 19" fill="none" xmlns="http://www.w3.org/2000/svg">
<path d="M3.344 16V7.728H0.064V4.8H10.4V7.728H7.12V16H3.344ZM11.3808 16V4.8H16.7728C17.8181 4.8 18.7194 4.97067 19.4768 5.312C20.2448 5.65333 20.8368 6.144 21.2528 6.784C21.6688 7.41333 21.8768 8.16 21.8768 9.024C21.8768 9.888 21.6688 10.6347 21.2528 11.264C20.8368 11.8827 20.2448 12.3573 19.4768 12.688C18.7194 13.0187 17.8181 13.184 16.7728 13.184H13.4768L15.1568 11.632V16H11.3808ZM18.0848 16L15.3328 11.92H19.3328L22.1168 16H18.0848ZM15.1568 12.048L13.4768 10.336H16.5328C17.0554 10.336 17.4394 10.2187 17.6848 9.984C17.9408 9.74933 18.0688 9.42933 18.0688 9.024C18.0688 8.61867 17.9408 8.29867 17.6848 8.064C17.4394 7.82933 17.0554 7.712 16.5328 7.712H13.4768L15.1568 6V12.048ZM22.0866 16L26.9826 4.8H30.6946L35.5906 16H31.6866L28.0706 6.592H29.5426L25.9266 16H22.0866ZM24.9986 14.048L25.9586 11.328H31.1106L32.0706 14.048H24.9986ZM39.0726 16L34.3366 4.8H38.4006L42.2566 14.256H39.8406L43.8086 4.8H47.5206L42.7846 16H39.0726ZM51.3524 8.96H56.3444V11.68H51.3524V8.96ZM51.6084 13.152H57.2084V16H47.8964V4.8H57.0004V7.648H51.6084V13.152ZM58.662 16V4.8H62.438V13.072H67.494V16H58.662Z" fill="#281E38"/>
<mask id="path-2-outside-1_75_768" maskUnits="userSpaceOnUse" x="69" y="3" width="37" height="15" fill="black">
<rect fill="white" x="69" y="3" width="37" height="15"/>
<path d="M74.392 16.192C73.6347 16.192 72.936 16.0533 72.296 15.776C71.6667 15.488 71.1493 15.0827 70.744 14.56L72.184 12.832C72.4933 13.2373 72.8187 13.5467 73.16 13.76C73.5013 13.9627 73.8693 14.064 74.264 14.064C75.32 14.064 75.848 13.4453 75.848 12.208V6.88H71.912V4.8H78.424V12.064C78.424 13.4507 78.0827 14.4853 77.4 15.168C76.7173 15.8507 75.7147 16.192 74.392 16.192ZM86.4243 16.192C85.5389 16.192 84.7176 16.048 83.9603 15.76C83.2136 15.472 82.5629 15.0667 82.0082 14.544C81.4643 14.0213 81.0376 13.408 80.7283 12.704C80.4296 12 80.2803 11.232 80.2803 10.4C80.2803 9.568 80.4296 8.8 80.7283 8.096C81.0376 7.392 81.4696 6.77867 82.0243 6.256C82.5789 5.73333 83.2296 5.328 83.9763 5.04C84.7229 4.752 85.5336 4.608 86.4083 4.608C87.2936 4.608 88.1042 4.752 88.8403 5.04C89.5869 5.328 90.2323 5.73333 90.7763 6.256C91.3309 6.77867 91.7629 7.392 92.0723 8.096C92.3816 8.78933 92.5363 9.55733 92.5363 10.4C92.5363 11.232 92.3816 12.0053 92.0723 12.72C91.7629 13.424 91.3309 14.0373 90.7763 14.56C90.2323 15.072 89.5869 15.472 88.8403 15.76C88.1042 16.048 87.2989 16.192 86.4243 16.192ZM86.4083 13.984C86.9096 13.984 87.3683 13.8987 87.7843 13.728C88.2109 13.5573 88.5843 13.312 88.9043 12.992C89.2243 12.672 89.4696 12.2933 89.6403 11.856C89.8216 11.4187 89.9123 10.9333 89.9123 10.4C89.9123 9.86667 89.8216 9.38133 89.6403 8.944C89.4696 8.50667 89.2243 8.128 88.9043 7.808C88.5949 7.488 88.2269 7.24267 87.8003 7.072C87.3736 6.90133 86.9096 6.816 86.4083 6.816C85.9069 6.816 85.4429 6.90133 85.0163 7.072C84.6003 7.24267 84.2323 7.488 83.9123 7.808C83.5923 8.128 83.3416 8.50667 83.1603 8.944C82.9896 9.38133 82.9043 9.86667 82.9043 10.4C82.9043 10.9227 82.9896 11.408 83.1603 11.856C83.3416 12.2933 83.5869 12.672 83.8963 12.992C84.2163 13.312 84.5896 13.5573 85.0163 13.728C85.4429 13.8987 85.9069 13.984 86.4083 13.984ZM96.7839 16V11.424L97.3759 12.992L92.4479 4.8H95.1999L98.9759 11.088H97.3919L101.184 4.8H103.728L98.7999 12.992L99.3759 11.424V16H96.7839Z"/>
</mask>
<path d="M74.392 16.192C73.6347 16.192 72.936 16.0533 72.296 15.776C71.6667 15.488 71.1493 15.0827 70.744 14.56L72.184 12.832C72.4933 13.2373 72.8187 13.5467 73.16 13.76C73.5013 13.9627 73.8693 14.064 74.264 14.064C75.32 14.064 75.848 13.4453 75.848 12.208V6.88H71.912V4.8H78.424V12.064C78.424 13.4507 78.0827 14.4853 77.4 15.168C76.7173 15.8507 75.7147 16.192 74.392 16.192ZM86.4243 16.192C85.5389 16.192 84.7176 16.048 83.9603 15.76C83.2136 15.472 82.5629 15.0667 82.0082 14.544C81.4643 14.0213 81.0376 13.408 80.7283 12.704C80.4296 12 80.2803 11.232 80.2803 10.4C80.2803 9.568 80.4296 8.8 80.7283 8.096C81.0376 7.392 81.4696 6.77867 82.0243 6.256C82.5789 5.73333 83.2296 5.328 83.9763 5.04C84.7229 4.752 85.5336 4.608 86.4083 4.608C87.2936 4.608 88.1042 4.752 88.8403 5.04C89.5869 5.328 90.2323 5.73333 90.7763 6.256C91.3309 6.77867 91.7629 7.392 92.0723 8.096C92.3816 8.78933 92.5363 9.55733 92.5363 10.4C92.5363 11.232 92.3816 12.0053 92.0723 12.72C91.7629 13.424 91.3309 14.0373 90.7763 14.56C90.2323 15.072 89.5869 15.472 88.8403 15.76C88.1042 16.048 87.2989 16.192 86.4243 16.192ZM86.4083 13.984C86.9096 13.984 87.3683 13.8987 87.7843 13.728C88.2109 13.5573 88.5843 13.312 88.9043 12.992C89.2243 12.672 89.4696 12.2933 89.6403 11.856C89.8216 11.4187 89.9123 10.9333 89.9123 10.4C89.9123 9.86667 89.8216 9.38133 89.6403 8.944C89.4696 8.50667 89.2243 8.128 88.9043 7.808C88.5949 7.488 88.2269 7.24267 87.8003 7.072C87.3736 6.90133 86.9096 6.816 86.4083 6.816C85.9069 6.816 85.4429 6.90133 85.0163 7.072C84.6003 7.24267 84.2323 7.488 83.9123 7.808C83.5923 8.128 83.3416 8.50667 83.1603 8.944C82.9896 9.38133 82.9043 9.86667 82.9043 10.4C82.9043 10.9227 82.9896 11.408 83.1603 11.856C83.3416 12.2933 83.5869 12.672 83.8963 12.992C84.2163 13.312 84.5896 13.5573 85.0163 13.728C85.4429 13.8987 85.9069 13.984 86.4083 13.984ZM96.7839 16V11.424L97.3759 12.992L92.4479 4.8H95.1999L98.9759 11.088H97.3919L101.184 4.8H103.728L98.7999 12.992L99.3759 11.424V16H96.7839Z" fill="#9FDB51"/>
<path d="M72.296 15.776L71.8799 16.6853L71.8891 16.6895L71.8984 16.6936L72.296 15.776ZM70.744 14.56L69.9758 13.9198L69.4611 14.5375L69.9538 15.1728L70.744 14.56ZM72.184 12.832L72.979 12.2253L72.2184 11.2287L71.4158 12.1918L72.184 12.832ZM73.16 13.76L72.63 14.608L72.6397 14.614L72.6495 14.6199L73.16 13.76ZM75.848 6.88H76.848V5.88H75.848V6.88ZM71.912 6.88H70.912V7.88H71.912V6.88ZM71.912 4.8V3.8H70.912V4.8H71.912ZM78.424 4.8H79.424V3.8H78.424V4.8ZM77.4 15.168L76.6929 14.4609L76.6929 14.4609L77.4 15.168ZM74.392 15.192C73.7596 15.192 73.1977 15.0769 72.6936 14.8584L71.8984 16.6936C72.6743 17.0298 73.5097 17.192 74.392 17.192V15.192ZM72.7121 14.8667C72.2226 14.6427 71.836 14.3363 71.5342 13.9472L69.9538 15.1728C70.4627 15.829 71.1108 16.3333 71.8799 16.6853L72.7121 14.8667ZM71.5122 15.2002L72.9522 13.4722L71.4158 12.1918L69.9758 13.9198L71.5122 15.2002ZM71.389 13.4387C71.7528 13.9153 72.1634 14.3163 72.63 14.608L73.69 12.912C73.474 12.777 73.2339 12.5594 72.979 12.2253L71.389 13.4387ZM72.6495 14.6199C73.1443 14.9137 73.6886 15.064 74.264 15.064V13.064C74.0501 13.064 73.8583 13.0116 73.6705 12.9001L72.6495 14.6199ZM74.264 15.064C74.9912 15.064 75.7054 14.8435 76.2126 14.2492C76.694 13.6851 76.848 12.9455 76.848 12.208H74.848C74.848 12.7079 74.738 12.8962 74.6914 12.9508C74.6706 12.9751 74.5928 13.064 74.264 13.064V15.064ZM76.848 12.208V6.88H74.848V12.208H76.848ZM75.848 5.88H71.912V7.88H75.848V5.88ZM72.912 6.88V4.8H70.912V6.88H72.912ZM71.912 5.8H78.424V3.8H71.912V5.8ZM77.424 4.8V12.064H79.424V4.8H77.424ZM77.424 12.064C77.424 13.3018 77.1193 14.0345 76.6929 14.4609L78.1071 15.8751C79.0461 14.9362 79.424 13.5996 79.424 12.064H77.424ZM76.6929 14.4609C76.2585 14.8953 75.5498 15.192 74.392 15.192V17.192C75.8795 17.192 77.1762 16.806 78.1071 15.8751L76.6929 14.4609ZM83.9603 15.76L83.6004 16.693L83.6048 16.6947L83.9603 15.76ZM82.0082 14.544L81.3154 15.2651L81.3224 15.2718L82.0082 14.544ZM80.7283 12.704L79.8076 13.0946L79.8127 13.1063L80.7283 12.704ZM80.7283 8.096L79.8127 7.69369L79.8077 7.70545L80.7283 8.096ZM83.9763 5.04L83.6164 4.107L83.6164 4.107L83.9763 5.04ZM88.8403 5.04L88.4758 5.97125L88.4804 5.973L88.8403 5.04ZM90.7763 6.256L90.0834 6.97714L90.0904 6.98379L90.7763 6.256ZM92.0723 8.096L91.1567 8.49828L91.159 8.50344L92.0723 8.096ZM92.0723 12.72L92.9878 13.1223L92.99 13.1172L92.0723 12.72ZM90.7763 14.56L91.4616 15.2882L91.4621 15.2878L90.7763 14.56ZM88.8403 15.76L88.4804 14.827L88.4759 14.8288L88.8403 15.76ZM87.7843 13.728L87.4128 12.7995L87.4047 12.8028L87.7843 13.728ZM88.9043 12.992L88.1971 12.2849L88.1971 12.2849L88.9043 12.992ZM89.6403 11.856L88.7165 11.473L88.7125 11.4827L88.7087 11.4925L89.6403 11.856ZM89.6403 8.944L88.7087 9.30754L88.7125 9.31732L88.7165 9.32702L89.6403 8.944ZM88.9043 7.808L88.1853 8.50302L88.1912 8.50911L88.1971 8.51511L88.9043 7.808ZM87.8003 7.072L87.4289 8.00048L87.4289 8.00048L87.8003 7.072ZM85.0163 7.072L84.6448 6.14349L84.6367 6.14683L85.0163 7.072ZM83.9123 7.808L84.6194 8.51511L84.6194 8.51511L83.9123 7.808ZM83.1603 8.944L82.2365 8.56098L82.2325 8.57068L82.2287 8.58046L83.1603 8.944ZM83.1603 11.856L82.2258 12.212L82.2309 12.2256L82.2365 12.239L83.1603 11.856ZM83.8963 12.992L83.1773 13.687L83.1832 13.6931L83.1891 13.6991L83.8963 12.992ZM85.0163 13.728L84.6449 14.6565L84.6449 14.6565L85.0163 13.728ZM86.4243 15.192C85.6491 15.192 84.9494 15.0663 84.3157 14.8253L83.6048 16.6947C84.4857 17.0297 85.4287 17.192 86.4243 17.192V15.192ZM84.3201 14.827C83.6882 14.5833 83.1497 14.2456 82.6941 13.8162L81.3224 15.2718C81.9761 15.8877 82.7389 16.3607 83.6004 16.693L84.3201 14.827ZM82.7011 13.8229C82.2533 13.3927 81.9015 12.8883 81.6438 12.3017L79.8127 13.1063C80.1737 13.9277 80.6752 14.65 81.3154 15.2651L82.7011 13.8229ZM81.6488 12.3134C81.407 11.7435 81.2803 11.1097 81.2803 10.4H79.2803C79.2803 11.3543 79.4521 12.2565 79.8077 13.0945L81.6488 12.3134ZM81.2803 10.4C81.2803 9.69029 81.407 9.05651 81.6488 8.48655L79.8077 7.70545C79.4521 8.54349 79.2803 9.44571 79.2803 10.4H81.2803ZM81.6438 8.49827C81.8996 7.91596 82.2539 7.41361 82.7101 6.98379L81.3384 5.52821C80.6853 6.14372 80.1755 6.86804 79.8127 7.69373L81.6438 8.49827ZM82.7101 6.98379C83.1657 6.55441 83.7042 6.21673 84.3361 5.973L83.6164 4.107C82.7549 4.43926 81.9921 4.91225 81.3384 5.52821L82.7101 6.98379ZM84.3361 5.973C84.9577 5.73323 85.6452 5.608 86.4083 5.608V3.608C85.422 3.608 84.4881 3.77077 83.6164 4.107L84.3361 5.973ZM86.4083 5.608C87.1838 5.608 87.8691 5.73382 88.4759 5.97124L89.2046 4.10876C88.3394 3.77018 87.4034 3.608 86.4083 3.608V5.608ZM88.4804 5.973C89.1107 6.21614 89.641 6.552 90.0834 6.9771L91.4691 5.5349C90.8235 4.91466 90.0631 4.43986 89.2001 4.107L88.4804 5.973ZM90.0904 6.98379C90.5466 7.41361 90.9009 7.91596 91.1567 8.49827L92.9878 7.69373C92.625 6.86804 92.1152 6.14372 91.4621 5.52821L90.0904 6.98379ZM91.159 8.50344C91.4051 9.05511 91.5363 9.68221 91.5363 10.4H93.5363C93.5363 9.43245 93.358 8.52356 92.9855 7.68856L91.159 8.50344ZM91.5363 10.4C91.5363 11.1048 91.4059 11.7419 91.1545 12.3228L92.99 13.1172C93.3572 12.2687 93.5363 11.3592 93.5363 10.4H91.5363ZM91.1567 12.3177C90.9009 12.9 90.5466 13.4024 90.0904 13.8322L91.4621 15.2878C92.1152 14.6723 92.625 13.948 92.9878 13.1223L91.1567 12.3177ZM90.0909 13.8318C89.6477 14.2489 89.115 14.5822 88.4804 14.827L89.2001 16.693C90.0588 16.3618 90.8168 15.8951 91.4616 15.2882L90.0909 13.8318ZM88.4759 14.8288C87.8677 15.0667 87.1875 15.192 86.4243 15.192V17.192C87.4103 17.192 88.3408 17.0293 89.2046 16.6912L88.4759 14.8288ZM86.4083 14.984C87.0248 14.984 87.6143 14.8786 88.1638 14.6532L87.4047 12.8028C87.1222 12.9187 86.7944 12.984 86.4083 12.984V14.984ZM88.1556 14.6565C88.7061 14.4363 89.1941 14.1164 89.6114 13.6991L88.1971 12.2849C87.9744 12.5076 87.7158 12.6784 87.4129 12.7995L88.1556 14.6565ZM89.6114 13.6991C90.0328 13.2777 90.3528 12.7808 90.5718 12.2195L88.7087 11.4925C88.5864 11.8059 88.4157 12.0663 88.1971 12.2849L89.6114 13.6991ZM90.564 12.239C90.8017 11.6658 90.9123 11.0482 90.9123 10.4H88.9123C88.9123 10.8185 88.8415 11.1715 88.7165 11.473L90.564 12.239ZM90.9123 10.4C90.9123 9.75181 90.8017 9.13417 90.564 8.56098L88.7165 9.32702C88.8415 9.6285 88.9123 9.98153 88.9123 10.4H90.9123ZM90.5718 8.58046C90.3528 8.01924 90.0328 7.52233 89.6114 7.10089L88.1971 8.51511C88.4157 8.73367 88.5864 8.99409 88.7087 9.30754L90.5718 8.58046ZM89.6232 7.11298C89.2126 6.68817 88.725 6.36486 88.1716 6.14352L87.4289 8.00048C87.7289 8.12047 87.9772 8.28783 88.1853 8.50302L89.6232 7.11298ZM88.1716 6.14352C87.6165 5.92148 87.0252 5.816 86.4083 5.816V7.816C86.794 7.816 87.1306 7.88119 87.4289 8.00048L88.1716 6.14352ZM86.4083 5.816C85.7913 5.816 85.2 5.92148 84.6449 6.14352L85.3876 8.00048C85.6859 7.88119 86.0225 7.816 86.4083 7.816V5.816ZM84.6367 6.14683C84.0973 6.36811 83.6182 6.68785 83.2051 7.10089L84.6194 8.51511C84.8463 8.28815 85.1032 8.11723 85.3958 7.99717L84.6367 6.14683ZM83.2051 7.10089C82.7881 7.51793 82.4657 8.00815 82.2365 8.56098L84.084 9.32701C84.2174 9.00518 84.3964 8.73807 84.6194 8.51511L83.2051 7.10089ZM82.2287 8.58046C82.0071 9.14833 81.9043 9.75907 81.9043 10.4H83.9043C83.9043 9.97426 83.9721 9.61434 84.0918 9.30754L82.2287 8.58046ZM81.9043 10.4C81.9043 11.0333 82.008 11.6405 82.2258 12.212L84.0947 11.5C83.9711 11.1755 83.9043 10.812 83.9043 10.4H81.9043ZM82.2365 12.239C82.4628 12.7848 82.7753 13.2712 83.1773 13.687L84.6152 12.297C84.3986 12.0728 84.2204 11.8019 84.084 11.473L82.2365 12.239ZM83.1891 13.6991C83.6064 14.1164 84.0944 14.4363 84.6449 14.6565L85.3876 12.7995C85.0847 12.6784 84.8261 12.5076 84.6034 12.2849L83.1891 13.6991ZM84.6449 14.6565C85.2 14.8785 85.7913 14.984 86.4083 14.984V12.984C86.0225 12.984 85.6859 12.9188 85.3876 12.7995L84.6449 14.6565ZM96.7839 16H95.7839V17H96.7839V16ZM96.7839 11.424L97.7194 11.0708L95.7839 11.424H96.7839ZM97.3759 12.992L96.519 13.5075L98.3114 12.6388L97.3759 12.992ZM92.4479 4.8V3.8H90.6793L91.591 5.31548L92.4479 4.8ZM95.1999 4.8L96.0572 4.28518L95.7658 3.8H95.1999V4.8ZM98.9759 11.088V12.088H100.743L99.8332 10.5732L98.9759 11.088ZM97.3919 11.088L96.5355 10.5716L95.6211 12.088H97.3919V11.088ZM101.184 4.8V3.8H100.619L100.328 4.28358L101.184 4.8ZM103.728 4.8L104.585 5.31548L105.496 3.8H103.728V4.8ZM98.7999 12.992L97.8612 12.6472L99.6568 13.5075L98.7999 12.992ZM99.3759 11.424H100.376L98.4372 11.0792L99.3759 11.424ZM99.3759 16V17H100.376V16H99.3759ZM97.7839 16V11.424H95.7839V16H97.7839ZM95.8483 11.7772L96.4403 13.3452L98.3114 12.6388L97.7194 11.0708L95.8483 11.7772ZM98.2328 12.4765L93.3048 4.28452L91.591 5.31548L96.519 13.5075L98.2328 12.4765ZM92.4479 5.8H95.1999V3.8H92.4479V5.8ZM94.3426 5.31482L98.1186 11.6028L99.8332 10.5732L96.0572 4.28518L94.3426 5.31482ZM98.9759 10.088H97.3919V12.088H98.9759V10.088ZM98.2482 11.6044L102.04 5.31642L100.328 4.28358L96.5355 10.5716L98.2482 11.6044ZM101.184 5.8H103.728V3.8H101.184V5.8ZM102.871 4.28452L97.943 12.4765L99.6568 13.5075L104.585 5.31548L102.871 4.28452ZM99.7385 13.3368L100.315 11.7688L98.4372 11.0792L97.8612 12.6472L99.7385 13.3368ZM98.3759 11.424V16H100.376V11.424H98.3759ZM99.3759 15H96.7839V17H99.3759V15Z" fill="#281E38" mask="url(#path-2-outside-1_75_768)"/>
</svg>
